# xmcd
#
# Track frame offsets: 
#        150
#        10689
#        20974
#        37764
#        49599
#        64016
#        77274
#        89239
#        103662
#        117173
#        133881
#        147049
#        159110
#        170885
#        183175
#        196613
#        211431
#        221369
#        234330
#        246065
#        260548
#        274903
#
# Disc length: 3778 seconds
#
# Revision: 0
# Processed by: cddbd v1.5.1PL0 Copyright (c) Steve Scherf et al.
# Submitted via: ExactAudioCopy v0.95a3
#
DISCID=2a0ec016
DTITLE=Dr. Ross - Dr. Ross The Harmonica Boss
DYEAR=1900
DGENRE=Blues
TTITLE0=Cat Squirrel
TTITLE1=Biscuit Baking Woman
TTITLE2=Miss Ledora Blues
TTITLE3=I Am Not Dead
TTITLE4=Mean Old World
TTITLE5=Industrial Blues
TTITLE6=I'd Rather Be An Old Woman's Baby
TTITLE7=Good Things Come To My Mind
TTITLE8=Baby Stop Crying
TTITLE9=My Black Name Ringing
TTITLE10=Going Away Baby
TTITLE11=General Motor Blues
TTITLE12=Industrial Boogie
TTITLE13=Thirty-Two Twenty
TTITLE14=New York Breakdown
TTITLE15=Call The Doctor
TTITLE16=Numbers Blues
TTITLE17=Cannon Ball
TTITLE18=The Sunnyland
TTITLE19=Sugar Mama
TTITLE20=San Francisco Breakdown
TTITLE21=Boogie Disease
EXTD=
EXTT0=
EXTT1=
EXTT2=
EXTT3=
EXTT4=
EXTT5=
EXTT6=
EXTT7=
EXTT8=
EXTT9=
EXTT10=
EXTT11=
EXTT12=
EXTT13=
EXTT14=
EXTT15=
EXTT16=
EXTT17=
EXTT18=
EXTT19=
EXTT20=
EXTT21=
PLAYORDER=
